<?xml version="1.0" standalone="no"?>
<!DOCTYPE svg PUBLIC "-//W3C//DTD SVG 20010904//EN"
 "http://www.w3.org/TR/2001/REC-SVG-20010904/DTD/svg10.dtd">
<svg version="1.0" xmlns="http://www.w3.org/2000/svg"
 width="577.000000pt" height="577.000000pt" viewBox="0 0 577.000000 577.000000"
 preserveAspectRatio="xMidYMid meet">
<metadata>
Created by potrace 1.11, written by Peter Selinger 2001-2013
</metadata>
<g transform="translate(0.000000,577.000000) scale(0.100000,-0.100000)"
fill="#000000" stroke="none">
<path d="M3640 4725 c-47 -30 -92 -59 -100 -65 -8 -5 -49 -31 -90 -57 -41 -26
-79 -51 -85 -55 -5 -5 -29 -22 -52 -38 -24 -17 -43 -38 -44 -48 -3 -64 -1
-191 5 -268 5 -78 13 -134 41 -273 40 -203 191 -608 259 -694 14 -18 16 -18
40 -1 l26 17 -25 33 c-81 107 -222 507 -261 744 -2 14 -6 39 -9 57 -11 62 -17
149 -17 251 -1 89 2 106 18 121 10 10 105 76 209 146 105 71 194 131 198 136
9 7 -9 49 -21 48 -4 0 -45 -25 -92 -54z"/>
<path d="M4295 4694 c-66 -31 -128 -58 -137 -61 -21 -6 -22 -21 -3 -46 13 -18
20 -16 139 42 l126 61 43 -17 c42 -17 115 -67 130 -90 18 -28 40 -42 60 -39
78 12 -96 175 -213 200 -17 4 -63 -12 -145 -50z"/>
<path d="M3790 4695 c-39 -28 -76 -93 -87 -152 -10 -47 -10 -230 -1 -300 21
-154 102 -478 159 -628 102 -270 301 -568 613 -920 39 -43 39 -43 10 -48 -10
-1 -23 -5 -29 -9 -17 -10 -136 -1 -200 14 -89 22 -136 50 -212 125 -91 91
-273 338 -273 371 0 5 -7 15 -14 22 -12 9 -40 -1 -143 -53 -1547 -779 -1516
-764 -1562 -760 -79 6 -148 56 -198 140 -31 53 -71 164 -66 181 3 7 84 52 181
100 98 49 187 94 200 101 l22 12 -27 52 c-16 29 -46 79 -67 112 -73 113 -131
200 -136 205 -3 3 -23 27 -45 55 -219 273 -437 342 -590 187 -39 -39 -77 -107
-90 -157 -4 -16 -9 -39 -12 -50 -3 -11 -7 -69 -9 -129 -4 -126 9 -236 51 -411
3 -11 7 -29 9 -40 2 -11 9 -32 15 -47 6 -16 9 -28 7 -28 -6 0 98 -296 134
-380 17 -41 34 -84 37 -95 10 -34 152 -306 200 -383 25 -40 44 -75 41 -77 -6
-6 -87 -16 -138 -16 -123 0 -239 50 -335 146 -62 62 -77 81 -145 175 -22 30
-44 60 -50 67 -5 7 -10 17 -10 23 0 5 -4 10 -9 10 -5 0 -11 8 -15 18 -3 9 -26
53 -51 97 -25 44 -55 101 -67 128 -13 26 -26 47 -29 47 -3 0 -12 -12 -19 -27
-75 -159 -79 -385 -10 -571 22 -59 22 -60 -50 -64 -44 -3 -46 -2 -80 47 -19
28 -44 69 -56 93 l-22 43 -21 -27 c-11 -15 -21 -33 -21 -40 0 -8 -5 -14 -12
-14 -6 0 -9 -3 -5 -6 3 -3 0 -25 -7 -47 -18 -60 -13 -221 8 -282 23 -65 48
-118 59 -126 5 -3 9 -10 9 -15 1 -12 50 -83 82 -117 l25 -27 116 60 116 61 82
-79 c98 -95 134 -125 211 -180 l58 -41 67 33 c36 18 92 45 123 60 l57 28 103
-51 c141 -70 261 -99 404 -99 223 -1 385 77 445 212 10 23 21 45 25 49 5 4 9
13 10 20 1 7 7 32 15 57 26 94 34 163 33 325 0 151 -7 250 -24 348 -6 34 -13
77 -16 95 -3 17 -1 32 4 32 5 0 47 21 93 46 45 25 153 82 238 126 86 44 161
84 166 88 6 4 82 44 170 90 88 46 189 100 225 120 36 21 113 62 171 93 l106
55 40 -52 c112 -142 340 -368 453 -448 33 -23 60 -45 60 -50 0 -4 15 -15 33
-24 17 -9 34 -20 37 -23 18 -24 258 -121 300 -121 9 0 54 16 100 36 47 19 107
44 135 55 27 11 61 27 75 34 14 8 66 31 115 51 50 21 95 43 100 48 17 19 67
129 80 179 25 91 6 301 -34 374 -9 18 -4 25 45 58 100 69 165 166 169 253 3
74 -31 205 -77 295 -11 22 -18 40 -16 41 116 87 166 125 190 141 31 21 32 29
12 170 -5 41 -40 179 -51 205 -3 8 -7 17 -8 20 -5 20 -55 105 -90 156 -92 129
-200 167 -297 103 -72 -47 -96 -129 -76 -257 7 -43 70 -249 104 -337 5 -11
-18 -24 -198 -111 l-47 -23 -50 52 c-205 213 -308 551 -240 789 7 24 13 45 13
48 1 3 5 11 10 18 10 17 -9 32 -100 78 -84 42 -114 41 -163 -10 -50 -52 -73
-132 -75 -268 -2 -65 4 -155 11 -200 8 -46 15 -92 17 -103 9 -57 57 -213 86
-280 74 -171 150 -308 236 -425 52 -71 48 -82 -26 -76 -127 11 -260 108 -370
270 -73 110 -179 342 -196 431 -1 6 -7 30 -14 55 -34 126 -47 356 -26 455 17
75 30 114 58 174 l31 65 -32 26 c-52 44 -122 74 -181 78 -47 3 -60 0 -90 -23z
m1414 -637 c0 -67 23 -167 54 -229 20 -41 17 -50 -24 -63 -17 -5 -24 2 -43 41
-12 27 -23 58 -26 71 -2 12 -7 27 -10 32 -7 12 -13 51 -19 128 -5 58 9 82 47
82 20 0 22 -5 21 -62z m-1884 -1347 c0 -3 -73 -42 -163 -86 -89 -44 -163 -83
-165 -87 -2 -5 -8 -8 -13 -8 -13 0 -74 -28 -243 -112 -131 -65 -141 -68 -153
-51 -18 24 -13 42 17 58 48 26 421 205 429 205 4 0 12 5 19 12 6 6 62 35 124
65 l113 53 18 -21 c9 -12 17 -24 17 -28z m1598 -350 c24 -21 28 -31 12 -31 -5
0 -45 -16 -87 -36 -43 -19 -91 -41 -108 -49 -16 -7 -56 -25 -88 -40 -32 -14
-66 -23 -76 -20 -22 7 -59 45 -43 45 10 0 163 69 277 124 61 30 83 31 113 7z
m-3792 -653 c60 -93 172 -246 199 -274 5 -6 25 -29 43 -52 19 -23 45 -53 58
-67 13 -15 22 -30 19 -34 -9 -15 -56 -19 -68 -6 -87 90 -195 226 -266 335 -33
52 -65 100 -70 106 -13 15 -31 52 -31 61 0 5 10 13 23 19 12 7 23 12 24 13 0
0 31 -45 69 -101z m772 -243 c44 -47 115 -105 131 -105 6 0 11 -3 11 -8 0 -8
100 -47 147 -57 56 -11 107 -8 164 12 l56 19 11 -28 c9 -25 8 -30 -11 -40 -23
-13 -24 -13 -72 -24 -132 -29 -298 19 -425 123 -52 43 -130 135 -130 153 0 5
10 16 23 25 21 15 23 14 40 -7 11 -13 35 -41 55 -63z"/>
<path d="M4850 4419 c-63 -27 -130 -54 -147 -60 -24 -8 -33 -17 -33 -32 1 -51
12 -51 121 -1 57 26 109 51 116 56 17 13 92 16 132 6 19 -6 51 -21 72 -35 67
-44 110 -7 47 40 -48 35 -70 45 -135 61 l-59 13 -114 -48z"/>
<path d="M4105 4260 c-7 -22 -7 -200 -1 -240 3 -14 8 -43 11 -65 15 -86 96
-306 149 -402 l29 -52 27 16 27 16 -31 61 c-46 92 -121 282 -131 336 -2 12 -6
29 -9 38 -10 33 -20 139 -20 221 -1 78 -2 84 -23 87 -15 3 -24 -3 -28 -16z"/>
<path d="M3531 4231 c-7 -5 -11 -17 -7 -27 3 -11 7 -30 10 -44 30 -174 148
-515 245 -708 83 -167 240 -431 281 -472 3 -3 21 -27 40 -55 57 -82 112 -145
128 -145 5 0 15 7 22 15 14 17 4 36 -53 98 -19 20 -33 37 -30 37 2 0 -1 6 -7
13 -38 45 -53 65 -72 97 -12 19 -25 37 -28 40 -3 3 -19 27 -35 54 -17 28 -40
66 -52 85 -13 20 -28 47 -35 61 -7 14 -15 27 -19 30 -3 3 -13 19 -21 35 -41
77 -119 231 -120 235 0 3 -5 16 -10 30 -6 14 -28 75 -49 135 -22 61 -43 119
-48 130 -21 51 -91 316 -91 347 0 19 -25 24 -49 9z"/>
<path d="M4884 4200 c-12 -4 -24 -15 -27 -24 -16 -41 23 -288 55 -349 5 -10
11 -26 13 -35 2 -9 10 -29 17 -44 14 -26 15 -26 46 -11 30 14 31 17 18 42 -48
94 -83 248 -82 359 1 74 -2 78 -40 62z"/>
<path d="M1110 3567 c-96 -46 -200 -95 -231 -109 l-55 -25 -27 -89 c-47 -156
-55 -225 -53 -410 2 -94 5 -175 9 -180 3 -5 9 -37 12 -69 8 -72 33 -206 39
-212 2 -3 14 -2 26 2 24 8 24 7 -4 180 -29 176 -38 351 -25 460 7 56 40 198
49 210 4 6 10 23 14 38 7 29 2 26 251 142 39 18 99 45 135 60 36 16 67 30 69
32 6 4 -21 53 -28 53 -3 0 -85 -38 -181 -83z"/>
<path d="M3350 3383 c-8 -3 -175 -85 -370 -181 -429 -211 -730 -358 -867 -423
-101 -48 -103 -49 -91 -74 6 -14 15 -25 20 -25 5 0 68 29 141 64 391 189 537
260 782 381 149 72 309 151 356 174 84 40 86 42 75 66 -11 25 -19 28 -46 18z"/>
<path d="M1071 3327 l-23 -11 5 -161 c3 -88 8 -171 12 -185 3 -14 7 -45 9 -70
5 -51 38 -208 61 -290 9 -30 17 -62 20 -70 7 -30 57 -166 76 -207 10 -24 19
-45 19 -48 0 -2 11 -28 24 -57 27 -60 58 -130 61 -138 2 -6 62 -125 81 -162
10 -19 20 -25 34 -21 11 3 23 9 25 13 3 5 -23 66 -57 137 -35 71 -74 153 -86
183 -13 30 -32 74 -43 97 -10 24 -19 47 -19 53 0 6 -4 18 -9 28 -9 15 -22 49
-26 62 0 3 -11 34 -22 70 -22 65 -48 161 -57 213 -37 203 -44 275 -47 460 -1
64 -4 117 -8 116 -3 0 -17 -5 -30 -12z"/>
<path d="M3310 3166 c-76 -39 -432 -222 -685 -351 -413 -210 -450 -232 -447
-252 2 -10 7 -22 12 -26 7 -8 532 250 538 266 2 4 9 7 15 7 7 0 26 7 42 16 17
9 159 81 318 160 158 79 287 146 287 148 0 14 -21 56 -27 56 -5 0 -28 -11 -53
-24z"/>
<path d="M595 2941 c-38 -20 -73 -40 -76 -44 -3 -5 -9 -8 -13 -7 -3 0 -13 -3
-22 -8 -12 -6 -15 -30 -14 -118 0 -165 24 -346 58 -449 9 -27 17 -54 18 -60 1
-5 10 -37 20 -70 10 -33 19 -64 20 -70 5 -19 29 -80 49 -123 l21 -43 23 18 23
19 -26 64 c-45 109 -119 385 -132 485 -3 28 -9 68 -13 90 -4 22 -6 67 -5 100
3 125 -5 112 89 157 83 39 92 49 79 82 -8 22 -18 19 -99 -23z"/>
<path d="M365 2259 c-39 -21 -92 -51 -119 -66 l-48 -28 7 -80 c9 -94 9 -101
18 -140 4 -16 9 -39 11 -50 31 -161 204 -489 335 -635 22 -25 41 -48 41 -52 0
-14 27 -8 43 10 15 16 13 21 -29 65 -24 26 -44 52 -44 56 0 5 -3 11 -7 13 -27
12 -147 200 -199 313 -65 141 -98 266 -108 408 l-3 58 51 33 c28 18 72 45 97
60 37 21 46 31 42 47 -3 10 -8 21 -12 23 -3 2 -38 -13 -76 -35z"/>
</g>
</svg>
